PathFileType	4	(X/Y/Z)	C:\Users\WrightLab\Desktop\Jo\P1_boxCal26.trc
DataRate	CameraRate	NumFrames	NumMarkers	Units	OrigDataRate	OrigDataStartFrame	OrigNumFrames
100.00	100.00	       9	19	mm	100.00	582	       664
Frame#	Time	Headset_Front			Headset_Back			Headset_Left			Headset_Right			Left_Shoulder			Right_Shoulder			Sternum			C7			Left Elbow			Right Elbow			Left Wrist			Right Wrist			Left ASIS			Right ASIS			S2			Left Knee			Right Knee			Left Ankle			Right Ankle			
		X1	Y1	Z1	X2	Y2	Z2	X3	Y3	Z3	X4	Y4	Z4	X5	Y5	Z5	X6	Y6	Z6	X7	Y7	Z7	X8	Y8	Z8	X9	Y9	Z9	X10	Y10	Z10	X11	Y11	Z11	X12	Y12	Z12	X13	Y13	Z13	X14	Y14	Z14	X15	Y15	Z15	X16	Y16	Z16	X17	Y17	Z17	X18	Y18	Z18	X19	Y19	Z19	

582	5.810				-741.89160	1441.24487	-992.07513	-705.33307	1410.22473	-1154.36743	-575.59583	1133.74182	-1152.51501	-827.93225	1223.11536	-1141.88196	-506.70651	1225.31104	-937.77148	-522.56226	1409.94238	-1024.44214	-736.37549	1220.58984	-955.30267	-904.77228	911.75806	-1202.24561	-506.41214	970.80841	-807.15265	-897.75946	762.78613	-1364.54810	-423.93549	752.09314	-741.12366	-676.23212	848.30511	-1229.88794	-500.95963	845.35822	-1134.36877	-736.88593	844.86395	-907.69421				-486.57553	409.95425	-1114.97620	-928.64221	104.08537	-873.18994				
583	5.820				-738.50446	1439.64502	-998.50885	-700.08569	1411.13184	-1159.84082	-569.51337	1133.84753	-1156.21167	-822.47546	1223.83228	-1149.11169	-501.93005	1225.32373	-944.62689	-518.53070	1411.18884	-1027.59302	-730.75739	1220.11633	-961.75159	-897.15369	911.41870	-1208.54736	-502.35339	970.97876	-814.12177	-889.12817	760.89484	-1368.87744	-422.04544	751.06573	-747.52887	-670.10291	849.47675	-1236.90906	-494.96301	846.83069	-1143.30188	-731.07428	843.74811	-915.80951				-480.13623	411.47888	-1122.34595	-928.97711	110.11322	-882.49860				
584	5.830				-735.65796	1438.94360	-1004.11438	-694.78204	1412.00598	-1165.45752	-563.98511	1134.97180	-1163.64172	-815.98846	1224.95374	-1156.90405	-496.78210	1225.37683	-950.24506	-515.70691	1412.61047	-1030.83008	-725.81598	1220.82788	-969.56024				-499.35489	970.04462	-821.99969	-880.26172	759.35852	-1373.18140	-420.64740	750.36755	-755.61481	-663.57330	851.99060	-1245.12024	-490.33914	847.83551	-1147.70959	-726.55011	844.42651	-923.57660				-473.51746	412.06659	-1130.85840	-928.44391	116.74088	-891.81378				
585	5.840				-733.51776	1438.19775	-1010.26306	-689.34009	1413.35144	-1171.46326	-558.10022	1136.67139	-1170.50110	-811.21655	1225.31104	-1162.49561	-492.13968	1226.56824	-957.44006	-512.40033	1414.70801	-1038.45740	-720.22992	1220.79932	-976.05579	-881.55359	910.49109	-1217.86450	-496.07071	970.24194	-830.87494				-418.40771	750.03430	-763.05225	-657.18970	853.70764	-1251.99023	-482.04910	850.72455	-1159.13293	-721.23077	844.27252	-931.07013				-467.62042	414.77930	-1136.94861	-926.75696	122.79012	-904.65405				
586	5.850				-730.04047	1437.64404	-1016.23328	-683.82745	1414.71582	-1177.03857	-552.75275	1137.84875	-1176.06531	-805.39996	1226.77356	-1170.53333	-487.93097	1226.49390	-962.84418	-508.32974	1415.75122	-1041.78528	-717.29987	1222.14355	-982.61505	-874.08453	910.93134	-1223.73230	-492.20850	969.92072	-837.96973	-862.44604	757.56720	-1383.15967	-415.37857	750.82513	-770.63739	-650.39880	856.01489	-1259.74890	-476.58286	852.36707	-1163.58179	-717.01855	844.15399	-937.70844				-460.87860	417.80154	-1140.48792	-923.34967	134.21794	-905.58539				
587	5.860				-725.95850	1436.71729	-1022.39960	-678.35590	1416.00415	-1182.66553	-547.35175	1139.56384	-1181.77649	-799.74713	1228.51233	-1180.65125	-484.35431	1228.19202	-968.37488	-505.72034	1415.74060	-1044.54504	-713.51678	1221.79565	-989.88837	-866.73639	911.26703	-1229.27100	-487.71799	970.61438	-844.40564	-853.94659	756.66498	-1387.44592	-410.81448	750.42432	-777.91217	-643.41516	858.20624	-1266.22961	-470.04868	854.12836	-1170.28333	-712.10498	844.36462	-944.30933				-455.00626	421.06787	-1147.11633	-921.69550	142.09499	-919.71771				
588	5.870				-724.97504	1436.46948	-1029.09363	-672.87958	1417.32764	-1188.51929	-542.53284	1140.28430	-1186.90479	-794.85114	1229.50391	-1187.36389	-480.99652	1228.99719	-973.40234	-499.91348	1419.03333	-1044.39368	-708.67596	1222.73254	-997.18628	-859.76190	909.42603	-1231.13245	-483.57919	970.74451	-851.11957	-845.55524	754.90668	-1390.54382	-408.73245	750.91656	-786.28827	-636.33875	860.24188	-1272.24573	-464.02502	856.48889	-1174.78320	-708.35626	844.81610	-950.58893				-448.59531	423.90170	-1151.84534	-918.85504	149.18138	-935.47540				
589	5.880				-721.17303	1436.18567	-1034.81799	-667.44232	1418.77869	-1194.15735	-537.60175	1142.69617	-1195.21570	-789.79816	1229.94446	-1194.92725	-477.72440	1230.81152	-979.18689	-498.34482	1418.27283	-1047.79858	-706.72083	1223.82471	-1003.98889	-852.77368	910.08997	-1237.90552	-479.39752	970.83380	-859.08832	-837.47632	752.77661	-1393.32642	-405.97751	750.30273	-794.49957	-629.14374	862.21002	-1278.64966	-458.09952	858.77460	-1179.41443	-704.21973	844.54779	-958.34698				-443.85916	425.16989	-1155.67102	-889.63043	188.42516	-884.69836				
590	5.890				-718.16412	1436.68213	-1042.18677	-662.06543	1420.41431	-1200.70459	-532.68542	1143.74414	-1199.87036	-785.51617	1230.83960	-1202.91333	-475.16620	1231.46814	-983.79663	-493.79349	1418.41516	-1048.07373	-703.54047	1224.21521	-1011.60425	-845.38531	911.94995	-1248.27051	-477.75558	970.46332	-866.64349	-829.55396	750.75659	-1396.83069	-401.79068	750.14923	-805.51044	-622.06024	863.95123	-1285.30493	-451.11655	860.72321	-1186.12415	-699.85693	843.85010	-964.72668	-863.41357	178.12616	-901.09515	-437.10477	425.66626	-1157.89807	-912.90094	160.22523	-985.20813				
